# xmcd
#
# Track frame offsets:
#	150
#	16969
#	33869
#	54788
#	69740
#	88265
#	118179
#	125964
#	144971
#	162696
#	176784
#	190951
#	207573
#	224443
#
# Disc length: 3281 seconds
#
# Revision: 1
# Processed by: cddbd v1.5.2PL0 Copyright (c) Steve Scherf et al.
# Submitted via: audiograbber 1.83.01
#
DISCID=db0ccf0e
DTITLE=Bernard Allison - The River's Risin
DYEAR=2008
DGENRE=Blues
TTITLE0=The River Is Rising
TTITLE1=I Just Came Back To Say Goodbye
TTITLE2=Coming Back (Across The Water)
TTITLE3=Feels Kinda Funny
TTITLE4=There's No Higher Love
TTITLE5=I've Been Down
TTITLE6=Slip Slidin'
TTITLE7=Down South
TTITLE8=I Think I Love You Too Much
TTITLE9=Mean Town Blues
TTITLE10=Speed Slide
TTITLE11=Snake Bit Again
TTITLE12=Fistful Of Dirt
TTITLE13=Bonus Track
EXTD=
EXTT0=
EXTT1=
EXTT2=
EXTT3=
EXTT4=
EXTT5=
EXTT6=
EXTT7=
EXTT8=
EXTT9=
EXTT10=
EXTT11=
EXTT12=
EXTT13=
PLAYORDER=
